# xmcd
#
# Track frame offsets: 
#        150
#        19472
#        35882
#        51667
#        66990
#        84305
#        100247
#        116980
#        134277
#        152112
#
# Disc length: 2217 seconds
#
# Revision: 0
# Processed by: cddbd v1.4PL0 Copyright (c) Steve Scherf et al.
# Submitted via: ExactAudioCopy v0.90b3
#
DISCID=9508a70a
DTITLE=T.G. Sheppard - One For The Money
DYEAR=1900
DGENRE=Country
TTITLE0=One For The Money
TTITLE1=Echoes In My Heart
TTITLE2=So Much For Love
TTITLE3=One Of Those Days
TTITLE4=Walk Of Life
TTITLE5=Let's Do It Again
TTITLE6=Changes
TTITLE7=Everybody Loved Us
TTITLE8=Come To Me
TTITLE9=Some Bridges Never Burn
EXTD=
EXTT0=
EXTT1=
EXTT2=
EXTT3=
EXTT4=
EXTT5=
EXTT6=
EXTT7=
EXTT8=
EXTT9=
PLAYORDER=
